PathFileType	4	(X/Y/Z)	C:/Users/beibeiliu/ov580/test_trc/User1\sequence.32_training_dense_right.trc
DataRate	CameraRate	NumFrames	NumMarkers	Units	OrigDataRate	OrigDataStartFrame	OrigNumFrames
120	120	20	19	mm	120	141	224
Frame#	Time	ThumbCMC			ThumbMCP			ThumbIP			ThumbTip			IndexMCP			IndexPIP			IndexTip			MiddleMCP			MiddlePIP			MiddleTip			RingMCP			RingPIP			RingTip			PinkyMCP			PinkyPIP			PinkyTip			BackHand1			BackHand2			BackHand3	
		X0	Y0	Z0	X1	Y1	Z1	X2	Y2	Z2	X3	Y3	Z3	X4	Y4	Z4	X5	Y5	Z5	X6	Y6	Z6	X7	Y7	Z7	X8	Y8	Z8	X9	Y9	Z9	X10	Y10	Z10	X11	Y11	Z11	X12	Y12	Z12	X13	Y13	Z13	X14	Y14	Z14	X15	Y15	Z15	X16	Y16	Z16	X17	Y17	Z17	X18	Y18	Z18	
140	1.16667	257.32	-28.5281	55.0002	259.703	-5.20656	34.7199	257.92	6.30506	12.7601	258.813	18.3634	-6.31657	221.727	-45.8733	-22.2374	199.35	-44.4133	-46.4483	179.343	-36.5759	-62.7989	202.389	-69.355	-20.3926	176.903	-61.1181	-43.3999	146.939	-52.3949	-51.7782	182.059	-83.1022	-5.79782	157.761	-67.6357	-21.036	134.125	-44.4185	-12.0856	174.26	-90.1892	21.5586	153.663	-78.7097	8.23712	139.343	-46.4619	4.82078	221.929	-90.3688	43.7611	238.236	-89.2755	70.0818	253.21	-61.9055	43.7221	
141	1.175	259.087	-24.8131	57.3085	256.296	-6.22677	31.7963	259.286	7.10215	8.10876	256.885	18.7187	-6.68635	222.477	-46.0311	-27.5528	203.094	-47.4857	-46.8847	179.648	-41.5763	-63.0257	202.164	-73.5833	-20.7417	180.568	-64.0771	-44.8895	150.559	-54.5454	-54.2149	186.085	-82.6794	-10.3368	157.45	-73.1948	-22.8966	139.067	-52.1542	-20.2907	174.711	-96.6698	21.9373	151.545	-85.3291	5.84193	136.435	-62.8446	0.258992	226.221	-88.4881	38.4142	239.668	-91.4219	72.4765	250.566	-65.1452	44.3086	
142	1.18333	256.855	-25.2679	52.9883	259.131	-4.02767	33.8685	258.579	7.02327	7.81669	257.395	19.3318	-5.17849	223.473	-49.2901	-26.2783	208.445	-45.9206	-48.571	187.323	-42.3764	-67.6512	205.312	-75.4263	-24.8663	184.779	-71.8527	-45.4658	152.774	-58.4834	-61.9956	187.199	-88.323	-12.2463	167.424	-81.3155	-28.8958	138.048	-60.7754	-32.1128	176.61	-100.259	18.7882	158.349	-98.3079	2.42452	133.684	-85.264	-11.7689	225.906	-87.9533	42.6558	236.798	-92.6201	69.4256	253.051	-62.961	43.0325	
143	1.19167	253.385	-28.2633	53.2196	256.555	-5.61514	35.4224	258.17	7.66667	7.96122	260.054	19.7356	-8.57227	225.708	-48.7869	-24.8128	209.664	-46.076	-52.5	188.865	-46.4801	-70.6306	208.886	-77.4665	-23.8489	190.1	-76.1122	-48.7814	163.123	-66.7806	-71.2287	191.71	-90.2829	-8.92177	164.336	-87.4474	-32.9554	143.802	-73.5973	-42.9903	178.553	-101.816	20.1233	160.475	-105.443	4.19701	143.095	-103.013	-20.1061	225.518	-90.1246	37.0065	236.661	-88.4811	74.1976	248.431	-63.3681	43.9928	
144	1.2	252.863	-28.3993	59.0854	255.437	-5.72475	35.2438	256.031	4.51363	10.3909	260.378	19.5354	-4.39905	225.655	-50.5042	-28.0056	210.611	-51.1671	-52.3227	197.396	-46.5384	-72.1606	211.725	-76.4623	-23.566	193.689	-78.0369	-51.1883	174.068	-75.6367	-74.3515	189.299	-91.9083	-11.7557	169.711	-91.008	-30.4254	144.002	-79.8944	-47.3641	176.214	-104.331	19.2391	160.75	-109.325	0.18565	150.347	-114.077	-16.7175	221.13	-90.2714	38.1251	235.611	-89.6369	74.8743	249.241	-66.5879	43.4583	
145	1.20833	251.733	-29.7729	57.7758	253.938	-9.2744	32.8201	257.143	4.3687	10.5311	261.109	16.9531	-5.5445	224.255	-53.882	-26.9766	215.167	-52.4349	-49.7284	200.763	-50.0267	-73.9066	211.873	-80.3783	-22.9075	198.259	-81.2779	-49.8769	179.17	-83.0065	-74.861	189.602	-91.9876	-11.5035	168.206	-89.8214	-33.8787	143.798	-79.7921	-46.385	178.036	-103.825	18.299	164.252	-110.569	3.40138	149.808	-122.367	-13.4906	219.609	-94.0687	43.0446	232.902	-91.5336	73.7865	246.919	-69.3239	46.1015	
146	1.21667	251.469	-31.0269	54.23	252.655	-11.2266	35.5552	256.226	1.23338	8.28359	258.719	15.1927	-4.75586	227.037	-52.7826	-28.7317	217.851	-51.8984	-48.4562	199.822	-55.0279	-75.389	210.776	-81.0697	-23.0239	197.74	-83.9574	-50.403	179.809	-86.9118	-78.4059	187.197	-91.7913	-8.6055	164.594	-87.4807	-32.137	142.558	-76.3679	-43.8701	174.642	-106.511	16.5543	161.949	-112.112	1.0375	149.942	-119.824	-19.3315	222.151	-93.1965	38.5345	230.228	-92.1997	72.624	246.149	-67.5151	47.904	
147	1.225	251.923	-29.9835	54.9933	251.446	-10.8019	35.2096	253.814	0.202751	10.0309	257.35	13.0865	-6.05169	224.541	-56.6687	-24.2628	215.587	-56.6669	-49.5174	201.022	-56.9423	-75.2358	207.907	-85.2019	-23.897	197.624	-85.5698	-52.1581	182.872	-87.2066	-78.9176	185.662	-90.9333	-9.01002	162.718	-87.3347	-28.7908	138.737	-72.7467	-39.465	177.185	-103.273	18.2646	160.623	-110.47	4.80272	147.823	-120.354	-14.2072	221.445	-93.4922	42.0235	231.184	-91.3602	71.0894	245.071	-68.9432	48.8245	
148	1.23333	250.328	-31.3415	56.4511	252.143	-9.90163	33.2848	255.005	0.988383	7.25915	258.402	14.498	-5.12056	225.479	-56.1635	-26.3186	213.838	-57.9302	-51.2976	203.396	-57.8229	-75.6525	208.883	-83.9359	-23.7942	198.01	-87.6737	-45.9699	181.556	-92.2076	-75.3681	183.793	-90.3772	-10.0285	159.604	-86.2488	-26.202	137.433	-66.4898	-33.5825	172.966	-106.188	17.2964	155.143	-111.17	5.05168	140.355	-113.913	-16.4751	218.85	-94.6544	41.4358	232.689	-91.938	73.9225	246.335	-70.7096	48.7809	
149	1.24167	251.086	-28.169	57.4157	249.624	-10.8176	37.5861	254.14	2.83853	8.6202	253.57	13.5319	-7.52462	223.086	-58.3499	-23.0573	213.459	-58.7663	-45.9951	202.465	-62.2946	-69.9289	209.222	-83.6462	-20.5572	196.942	-86.7743	-45.8705	181.23	-94.5848	-73.3318	183.06	-89.0738	-7.75025	158.32	-81.8981	-22.7256	131.39	-59.7316	-25.2755	171.157	-104.711	17.8146	153.764	-108.119	5.05674	135.97	-107.314	-14.8253	221.135	-94.0549	43.163	231.945	-93.4511	75.0888	246.909	-66.2666	46.5338	
150	1.25	249.596	-28.9215	58.4176	248.729	-10.3333	33.6368	250.362	1.36428	10.737	254.847	15.1474	-7.29955	224.017	-55.0875	-22.7263	216.292	-55.5786	-46.498	202.742	-58.6896	-75.3259	206.054	-85.4665	-21.551	193.305	-89.2302	-47.1052	178.117	-95.142	-73.1754	180.954	-89.9739	-4.54668	151.621	-77.4518	-21.126	133.449	-56.7097	-17.9662	172.839	-103.202	19.5828	154.096	-105.44	7.61094	131.715	-98.7851	-11.3472	221.232	-94.1504	41.112	232.97	-91.5174	72.9758	245.095	-67.027	46.3534	
151	1.25833	248.9	-28.1432	55.726	248.459	-8.00794	35.3597	247.338	-0.915286	7.85007	250.199	13.8291	-8.04331	223.44	-53.3167	-22.0832	212.684	-57.6823	-45.5524	199.915	-60.4501	-74.5553	205.782	-84.8961	-18.6022	193.493	-87.4923	-45.1446	178.575	-90.2878	-71.2234	175.059	-90.8211	-6.16548	148.717	-75.9314	-17.4551	132.554	-54.9349	-8.65234	169.313	-105.533	22.7818	148.178	-99.4316	6.24412	128.596	-80.0769	-5.26426	220.926	-93.0129	42.325	231.79	-93.3767	78.1944	244.471	-65.5914	47.1899	
152	1.26667	245.013	-29.923	58.0662	246.724	-8.77836	36.7705	249.159	3.11398	6.30019	251.375	14.4839	-7.34682	220.848	-55.9278	-21.7232	212.49	-56.3899	-47.8733	198.707	-58.8592	-72.6763	203.771	-85.8837	-23.797	192.276	-85.4639	-47.8742	172.901	-92.4395	-71.2742	178.05	-89.4374	-4.12999	153.282	-74.012	-16.5742	135.455	-50.0924	-4.41587	169.666	-100.406	19.9026	143.321	-89.0069	8.3162	134.086	-64.4829	3.34032	219.103	-97.6123	43.7881	232.733	-88.4189	76.8543	244.565	-63.6904	48.9286	
153	1.275	246.267	-28.0974	60.5345	247.165	-8.23799	35.9073	248.9	2.58357	6.86911	250.998	17.0515	-5.53408	223.164	-51.4896	-25.0825	213.33	-54.875	-48.9832	198.72	-58.1284	-72.1889	207.736	-81.7322	-20.4876	190.251	-86.4816	-49.295	172.838	-87.3545	-75.487	177.571	-85.7889	-8.82451	150.31	-68.6974	-14.3217	136.989	-46.6418	4.32398	167.422	-96.6152	17.2825	145.8	-77.8081	10.3715	144.775	-47.2444	14.9116	218.647	-95.31	41.2767	231.949	-92.1121	72.1964	243.467	-64.7224	49.43	
154	1.28333	244.542	-28.4391	60.0566	246.596	-8.30922	35.4225	246.899	2.80493	9.41568	251.299	16.7348	-6.26679	221.256	-53.4438	-26.5242	213.642	-53.2044	-51.3246	197.719	-56.6103	-73.4316	205.605	-82.855	-22.1071	191.752	-85.3568	-46.2776	171.954	-86.1061	-74.7894	178.153	-85.3388	-5.89714	149.444	-67.928	-10.7646	143.151	-41.4034	9.0029	165.61	-93.052	19.3101	147.063	-72.143	14.2817	148.645	-42.112	24.9267	218.298	-91.2079	42.6969	228.863	-92.1373	75.3053	245.165	-63.6455	47.1672	
155	1.29167	243.951	-28.7555	60.7402	246.325	-7.5932	35.7888	248.097	4.26279	9.0833	248.517	15.3763	-5.83205	221.731	-54.221	-24.9766	211.002	-54.9036	-50.8231	201.121	-54.8574	-70.8865	206.007	-81.6344	-24.6251	188.785	-87.3073	-48.4608	169.554	-86.6021	-74.0866	175.378	-84.4905	-3.28769	147.805	-61.5867	-7.41315	148.267	-38.5735	18.5222	164.948	-90.7116	19.7809	147.105	-63.655	20.0131	158.971	-37.5511	35.0877	215.626	-95.0501	39.7891	227.114	-91.2364	75.1332	242.208	-64.5854	49.1224	
156	1.3	245.378	-27.0614	58.4274	243.766	-7.37363	38.8983	245.017	4.53264	12.8879	248.947	17.9345	-1.76977	222.552	-51.8141	-24.7263	212.968	-53.6085	-51.0716	201.44	-54.7275	-71.2884	202.68	-82.9531	-22.1682	191.725	-82.7403	-45.5076	166.122	-87.2003	-71.9008	173.295	-78.9701	-7.59278	149.437	-54.1264	-4.03581	154.915	-36.6518	23.0943	162.702	-86.9501	20.8622	151.115	-60.2038	21.6668	165.491	-37.2987	43.4092	214.892	-92.6368	39.2292	227.682	-88.7297	74.8167	243.038	-66.6054	47.6391	
157	1.30833	245.165	-24.89	60.2721	244.018	-6.8887	32.8155	245.147	5.05695	8.33316	246.455	17.5463	-6.64348	221.208	-52.5293	-21.2483	214.806	-50.9658	-48.7488	202.564	-54.6241	-74.4262	202.357	-81.1548	-24.9905	185.528	-84.5367	-47.8803	164.511	-86.5095	-71.427	170.782	-80.6094	-2.86262	149.195	-55.0058	-2.51959	155.869	-39.6068	28.4042	160.985	-85.479	21.383	151.401	-57.8338	25.3278	167.605	-40.5617	46.1792	216.412	-92.4813	43.8692	230.111	-89.1117	75.1112	243.008	-62.3722	46.9487	
158	1.31667	243.423	-25.65	54.6463	244.153	-4.78033	36.5163	242.895	5.8166	9.48863	248.244	21.2289	-6.38202	220.65	-53.1102	-24.4812	215.199	-50.4801	-46.6131	203.428	-57.3465	-72.8584	201.082	-81.7357	-21.0532	186.129	-83.6656	-45.8168	163.393	-85.4322	-69.2853	170.849	-77.2516	-3.71626	150.255	-52.0473	0.17964	164.819	-36.5171	30.8852	159.196	-83.31	22.284	153.381	-53.2938	29.5272	170.896	-42.0328	51.8638	213.546	-92.3955	38.6366	226.798	-86.8463	72.2818	241.972	-61.5012	45.4515	
159	1.325	245.152	-24.0455	57.918	240.6	-6.8788	34.3146	242.268	5.97638	12.6944	246.818	21.9674	-7.33688	221.101	-50.3624	-25.4315	214.106	-51.6078	-45.7348	206.124	-54.39	-73.927	201.338	-79.3403	-20.3279	181.319	-82.9708	-48.9121	163.446	-82.7417	-67.9375	172.13	-73.7039	-3.215	149.723	-47.4841	3.67521	163.905	-38.61	32.3539	162.516	-80.5412	21.7243	151.709	-51.8794	32.3469	177.363	-42.2893	48.8421	212.55	-91.9395	42.9693	223.374	-90.0022	72.9981	239.284	-66.2815	44.8153	
